# xmcd
#
# Track frame offsets:
#	150
#	18251
#	36484
#	53168
#	70204
#	83432
#	97273
#	113019
#	126141
#	140979
#	156002
#	174585
#	188389
#	213332
#	230323
#	247562
#	271568
#	287251
#	303947
#	313788
#	329442
#
# Disc length: 4762 seconds
# Revision: 0
# Processed by: cddbd v1.5.2PL0 Copyright (c) Steve Scherf et al.
# Submitted via: dBpowerAMP V12.0
#
DISCID=14129815
DTITLE=Various Artist - Humo: Meer Dan Het Beste Uit 2011
DYEAR=2011
DGENRE=Pop
TTITLE0=Coldplay - Every Teardrop Is a Waterfall
TTITLE1=Gotye feat. Kimbra - Somebody That I Used to Know
TTITLE2=dEUS - Constant Now
TTITLE3=Adele - Rolling in the Deep
TTITLE4=Arctic Monkeys - The Hellcat Spangled Shalalala
TTITLE5=Kooks, The - Junk of the Heart (Happy)
TTITLE6=School Is Cool - The World Is Gonna End Tonight
TTITLE7=Vaccines, The - Post Break-Up Sex
TTITLE8=Customs - Harlequins
TTITLE9=Lenny Kravitz - Stand
TTITLE10=Anna Calvi - Suzanne and I
TTITLE11=Geike - Rope Dancer
TTITLE12=Bon Iver - Holocene
TTITLE13=Agnes Obel - Riverside
TTITLE14=Intergalactic Lovers - Delay
TTITLE15=Horrors, The - Still Life
TTITLE16=Zornik - Running After You
TTITLE17=TV on the Radio - Will Do
TTITLE18=Black Box Revelation - Rattle My Heart
TTITLE19=Noel Gallaghers' High Flying Birds - The Death of You and Me
TTITLE20=Antony and the Johnsons - Swanlights
EXTD=
EXTT0=
EXTT1=
EXTT2=
EXTT3=
EXTT4=
EXTT5=
EXTT6=
EXTT7=
EXTT8=
EXTT9=
EXTT10=
EXTT11=
EXTT12=
EXTT13=
EXTT14=
EXTT15=
EXTT16=
EXTT17=
EXTT18=
EXTT19=
EXTT20=
PLAYORDER=
